<mxfile host="app.diagrams.net" agent="Mozilla/5.0 (X11; Ubuntu; Linux x86_64; rv:131.0) Gecko/20100101 Firefox/131.0" version="24.7.17">
  <diagram name="Page-1" id="YGSRjCei_8j5BNqLQOy4">
    <mxGraphModel dx="4787" dy="1153" grid="0" gridSize="10" guides="1" tooltips="1" connect="1" arrows="1" fold="1" page="0" pageScale="1" pageWidth="850" pageHeight="1100" math="0" shadow="0">
      <root>
        <mxCell id="0" />
        <mxCell id="1" parent="0" />
        <mxCell id="Yx4VKU2NzzIZ2IJ3YvU_-12" value="Pixeles muertos" style="ellipse;whiteSpace=wrap;html=1;" vertex="1" parent="1">
          <mxGeometry x="16" y="320" width="120" height="80" as="geometry" />
        </mxCell>
        <mxCell id="Yx4VKU2NzzIZ2IJ3YvU_-13" value="GPU" style="ellipse;whiteSpace=wrap;html=1;" vertex="1" parent="1">
          <mxGeometry x="-96" y="97" width="120" height="80" as="geometry" />
        </mxCell>
        <mxCell id="Yx4VKU2NzzIZ2IJ3YvU_-14" value="Monitor" style="ellipse;whiteSpace=wrap;html=1;" vertex="1" parent="1">
          <mxGeometry x="34" y="101" width="120" height="80" as="geometry" />
        </mxCell>
        <mxCell id="Yx4VKU2NzzIZ2IJ3YvU_-15" value="Motherboard" style="ellipse;whiteSpace=wrap;html=1;" vertex="1" parent="1">
          <mxGeometry x="168" y="99" width="120" height="80" as="geometry" />
        </mxCell>
        <mxCell id="Yx4VKU2NzzIZ2IJ3YvU_-16" value="" style="endArrow=classic;html=1;rounded=0;fontSize=12;startSize=8;endSize=8;curved=1;exitX=0.5;exitY=1;exitDx=0;exitDy=0;entryX=0.208;entryY=0.113;entryDx=0;entryDy=0;entryPerimeter=0;" edge="1" parent="1" source="Yx4VKU2NzzIZ2IJ3YvU_-13" target="Yx4VKU2NzzIZ2IJ3YvU_-12">
          <mxGeometry width="50" height="50" relative="1" as="geometry">
            <mxPoint x="182" y="323" as="sourcePoint" />
            <mxPoint x="232" y="273" as="targetPoint" />
          </mxGeometry>
        </mxCell>
        <mxCell id="Yx4VKU2NzzIZ2IJ3YvU_-17" value="" style="endArrow=classic;html=1;rounded=0;fontSize=12;startSize=8;endSize=8;curved=1;exitX=0.5;exitY=1;exitDx=0;exitDy=0;entryX=0.5;entryY=0;entryDx=0;entryDy=0;" edge="1" parent="1" source="Yx4VKU2NzzIZ2IJ3YvU_-14" target="Yx4VKU2NzzIZ2IJ3YvU_-12">
          <mxGeometry width="50" height="50" relative="1" as="geometry">
            <mxPoint x="-26" y="187" as="sourcePoint" />
            <mxPoint x="51" y="339" as="targetPoint" />
          </mxGeometry>
        </mxCell>
        <mxCell id="Yx4VKU2NzzIZ2IJ3YvU_-18" value="" style="endArrow=classic;html=1;rounded=0;fontSize=12;startSize=8;endSize=8;curved=1;exitX=0.5;exitY=1;exitDx=0;exitDy=0;entryX=1;entryY=0;entryDx=0;entryDy=0;" edge="1" parent="1" source="Yx4VKU2NzzIZ2IJ3YvU_-15" target="Yx4VKU2NzzIZ2IJ3YvU_-12">
          <mxGeometry width="50" height="50" relative="1" as="geometry">
            <mxPoint x="182" y="323" as="sourcePoint" />
            <mxPoint x="232" y="273" as="targetPoint" />
          </mxGeometry>
        </mxCell>
        <mxCell id="Yx4VKU2NzzIZ2IJ3YvU_-27" value="&lt;div&gt;SobreruÃ­do de &lt;br&gt;&lt;/div&gt;&lt;div&gt;componentes&lt;br&gt;&lt;/div&gt;" style="ellipse;whiteSpace=wrap;html=1;" vertex="1" parent="1">
          <mxGeometry x="474" y="322" width="120" height="80" as="geometry" />
        </mxCell>
        <mxCell id="Yx4VKU2NzzIZ2IJ3YvU_-28" value="GPU" style="ellipse;whiteSpace=wrap;html=1;" vertex="1" parent="1">
          <mxGeometry x="362" y="99" width="120" height="80" as="geometry" />
        </mxCell>
        <mxCell id="Yx4VKU2NzzIZ2IJ3YvU_-29" value="Monitor" style="ellipse;whiteSpace=wrap;html=1;" vertex="1" parent="1">
          <mxGeometry x="492" y="103" width="120" height="80" as="geometry" />
        </mxCell>
        <mxCell id="Yx4VKU2NzzIZ2IJ3YvU_-30" value="Motherboard" style="ellipse;whiteSpace=wrap;html=1;" vertex="1" parent="1">
          <mxGeometry x="626" y="101" width="120" height="80" as="geometry" />
        </mxCell>
        <mxCell id="Yx4VKU2NzzIZ2IJ3YvU_-31" value="" style="endArrow=classic;html=1;rounded=0;fontSize=12;startSize=8;endSize=8;curved=1;exitX=0.5;exitY=1;exitDx=0;exitDy=0;entryX=0.208;entryY=0.113;entryDx=0;entryDy=0;entryPerimeter=0;" edge="1" parent="1" source="Yx4VKU2NzzIZ2IJ3YvU_-28" target="Yx4VKU2NzzIZ2IJ3YvU_-27">
          <mxGeometry width="50" height="50" relative="1" as="geometry">
            <mxPoint x="640" y="325" as="sourcePoint" />
            <mxPoint x="690" y="275" as="targetPoint" />
          </mxGeometry>
        </mxCell>
        <mxCell id="Yx4VKU2NzzIZ2IJ3YvU_-32" value="" style="endArrow=classic;html=1;rounded=0;fontSize=12;startSize=8;endSize=8;curved=1;exitX=0.5;exitY=1;exitDx=0;exitDy=0;entryX=0.5;entryY=0;entryDx=0;entryDy=0;" edge="1" parent="1" source="Yx4VKU2NzzIZ2IJ3YvU_-29" target="Yx4VKU2NzzIZ2IJ3YvU_-27">
          <mxGeometry width="50" height="50" relative="1" as="geometry">
            <mxPoint x="432" y="189" as="sourcePoint" />
            <mxPoint x="509" y="341" as="targetPoint" />
          </mxGeometry>
        </mxCell>
        <mxCell id="Yx4VKU2NzzIZ2IJ3YvU_-33" value="" style="endArrow=classic;html=1;rounded=0;fontSize=12;startSize=8;endSize=8;curved=1;exitX=0.5;exitY=1;exitDx=0;exitDy=0;entryX=1;entryY=0;entryDx=0;entryDy=0;" edge="1" parent="1" source="Yx4VKU2NzzIZ2IJ3YvU_-30" target="Yx4VKU2NzzIZ2IJ3YvU_-27">
          <mxGeometry width="50" height="50" relative="1" as="geometry">
            <mxPoint x="640" y="325" as="sourcePoint" />
            <mxPoint x="690" y="275" as="targetPoint" />
          </mxGeometry>
        </mxCell>
        <mxCell id="Yx4VKU2NzzIZ2IJ3YvU_-34" value="Falta de rendimiento" style="ellipse;whiteSpace=wrap;html=1;" vertex="1" parent="1">
          <mxGeometry x="-434" y="322" width="120" height="80" as="geometry" />
        </mxCell>
        <mxCell id="Yx4VKU2NzzIZ2IJ3YvU_-35" value="GPU" style="ellipse;whiteSpace=wrap;html=1;" vertex="1" parent="1">
          <mxGeometry x="-546" y="99" width="120" height="80" as="geometry" />
        </mxCell>
        <mxCell id="Yx4VKU2NzzIZ2IJ3YvU_-36" value="Monitor" style="ellipse;whiteSpace=wrap;html=1;" vertex="1" parent="1">
          <mxGeometry x="-416" y="103" width="120" height="80" as="geometry" />
        </mxCell>
        <mxCell id="Yx4VKU2NzzIZ2IJ3YvU_-37" value="Motherboard" style="ellipse;whiteSpace=wrap;html=1;" vertex="1" parent="1">
          <mxGeometry x="-282" y="101" width="120" height="80" as="geometry" />
        </mxCell>
        <mxCell id="Yx4VKU2NzzIZ2IJ3YvU_-38" value="" style="endArrow=classic;html=1;rounded=0;fontSize=12;startSize=8;endSize=8;curved=1;exitX=0.5;exitY=1;exitDx=0;exitDy=0;entryX=0.208;entryY=0.113;entryDx=0;entryDy=0;entryPerimeter=0;" edge="1" parent="1" source="Yx4VKU2NzzIZ2IJ3YvU_-35" target="Yx4VKU2NzzIZ2IJ3YvU_-34">
          <mxGeometry width="50" height="50" relative="1" as="geometry">
            <mxPoint x="-268" y="325" as="sourcePoint" />
            <mxPoint x="-218" y="275" as="targetPoint" />
          </mxGeometry>
        </mxCell>
        <mxCell id="Yx4VKU2NzzIZ2IJ3YvU_-39" value="" style="endArrow=classic;html=1;rounded=0;fontSize=12;startSize=8;endSize=8;curved=1;exitX=0.5;exitY=1;exitDx=0;exitDy=0;entryX=0.5;entryY=0;entryDx=0;entryDy=0;" edge="1" parent="1" source="Yx4VKU2NzzIZ2IJ3YvU_-36" target="Yx4VKU2NzzIZ2IJ3YvU_-34">
          <mxGeometry width="50" height="50" relative="1" as="geometry">
            <mxPoint x="-476" y="189" as="sourcePoint" />
            <mxPoint x="-399" y="341" as="targetPoint" />
          </mxGeometry>
        </mxCell>
        <mxCell id="Yx4VKU2NzzIZ2IJ3YvU_-40" value="" style="endArrow=classic;html=1;rounded=0;fontSize=12;startSize=8;endSize=8;curved=1;exitX=0.5;exitY=1;exitDx=0;exitDy=0;entryX=1;entryY=0;entryDx=0;entryDy=0;" edge="1" parent="1" source="Yx4VKU2NzzIZ2IJ3YvU_-37" target="Yx4VKU2NzzIZ2IJ3YvU_-34">
          <mxGeometry width="50" height="50" relative="1" as="geometry">
            <mxPoint x="-268" y="325" as="sourcePoint" />
            <mxPoint x="-218" y="275" as="targetPoint" />
          </mxGeometry>
        </mxCell>
        <mxCell id="Yx4VKU2NzzIZ2IJ3YvU_-41" value="&lt;div&gt;Temperaturas &lt;br&gt;&lt;/div&gt;&lt;div&gt;altas&lt;br&gt;&lt;/div&gt;" style="ellipse;whiteSpace=wrap;html=1;" vertex="1" parent="1">
          <mxGeometry x="888" y="322" width="120" height="80" as="geometry" />
        </mxCell>
        <mxCell id="Yx4VKU2NzzIZ2IJ3YvU_-42" value="GPU" style="ellipse;whiteSpace=wrap;html=1;" vertex="1" parent="1">
          <mxGeometry x="776" y="99" width="120" height="80" as="geometry" />
        </mxCell>
        <mxCell id="Yx4VKU2NzzIZ2IJ3YvU_-43" value="Monitor" style="ellipse;whiteSpace=wrap;html=1;" vertex="1" parent="1">
          <mxGeometry x="906" y="103" width="120" height="80" as="geometry" />
        </mxCell>
        <mxCell id="Yx4VKU2NzzIZ2IJ3YvU_-44" value="Motherboard" style="ellipse;whiteSpace=wrap;html=1;" vertex="1" parent="1">
          <mxGeometry x="1040" y="101" width="120" height="80" as="geometry" />
        </mxCell>
        <mxCell id="Yx4VKU2NzzIZ2IJ3YvU_-45" value="" style="endArrow=classic;html=1;rounded=0;fontSize=12;startSize=8;endSize=8;curved=1;exitX=0.5;exitY=1;exitDx=0;exitDy=0;entryX=0.208;entryY=0.113;entryDx=0;entryDy=0;entryPerimeter=0;" edge="1" parent="1" source="Yx4VKU2NzzIZ2IJ3YvU_-42" target="Yx4VKU2NzzIZ2IJ3YvU_-41">
          <mxGeometry width="50" height="50" relative="1" as="geometry">
            <mxPoint x="1054" y="325" as="sourcePoint" />
            <mxPoint x="1104" y="275" as="targetPoint" />
          </mxGeometry>
        </mxCell>
        <mxCell id="Yx4VKU2NzzIZ2IJ3YvU_-46" value="" style="endArrow=classic;html=1;rounded=0;fontSize=12;startSize=8;endSize=8;curved=1;exitX=0.5;exitY=1;exitDx=0;exitDy=0;entryX=0.5;entryY=0;entryDx=0;entryDy=0;" edge="1" parent="1" source="Yx4VKU2NzzIZ2IJ3YvU_-43" target="Yx4VKU2NzzIZ2IJ3YvU_-41">
          <mxGeometry width="50" height="50" relative="1" as="geometry">
            <mxPoint x="846" y="189" as="sourcePoint" />
            <mxPoint x="923" y="341" as="targetPoint" />
          </mxGeometry>
        </mxCell>
        <mxCell id="Yx4VKU2NzzIZ2IJ3YvU_-47" value="" style="endArrow=classic;html=1;rounded=0;fontSize=12;startSize=8;endSize=8;curved=1;exitX=0.5;exitY=1;exitDx=0;exitDy=0;entryX=1;entryY=0;entryDx=0;entryDy=0;" edge="1" parent="1" source="Yx4VKU2NzzIZ2IJ3YvU_-44" target="Yx4VKU2NzzIZ2IJ3YvU_-41">
          <mxGeometry width="50" height="50" relative="1" as="geometry">
            <mxPoint x="1054" y="325" as="sourcePoint" />
            <mxPoint x="1104" y="275" as="targetPoint" />
          </mxGeometry>
        </mxCell>
        <mxCell id="Yx4VKU2NzzIZ2IJ3YvU_-48" value="Pantallazo azul" style="ellipse;whiteSpace=wrap;html=1;" vertex="1" parent="1">
          <mxGeometry x="1298" y="322" width="120" height="80" as="geometry" />
        </mxCell>
        <mxCell id="Yx4VKU2NzzIZ2IJ3YvU_-49" value="GPU" style="ellipse;whiteSpace=wrap;html=1;" vertex="1" parent="1">
          <mxGeometry x="1186" y="99" width="120" height="80" as="geometry" />
        </mxCell>
        <mxCell id="Yx4VKU2NzzIZ2IJ3YvU_-50" value="Monitor" style="ellipse;whiteSpace=wrap;html=1;" vertex="1" parent="1">
          <mxGeometry x="1316" y="103" width="120" height="80" as="geometry" />
        </mxCell>
        <mxCell id="Yx4VKU2NzzIZ2IJ3YvU_-51" value="Motherboard" style="ellipse;whiteSpace=wrap;html=1;" vertex="1" parent="1">
          <mxGeometry x="1450" y="101" width="120" height="80" as="geometry" />
        </mxCell>
        <mxCell id="Yx4VKU2NzzIZ2IJ3YvU_-52" value="" style="endArrow=classic;html=1;rounded=0;fontSize=12;startSize=8;endSize=8;curved=1;exitX=0.5;exitY=1;exitDx=0;exitDy=0;entryX=0.208;entryY=0.113;entryDx=0;entryDy=0;entryPerimeter=0;" edge="1" parent="1" source="Yx4VKU2NzzIZ2IJ3YvU_-49" target="Yx4VKU2NzzIZ2IJ3YvU_-48">
          <mxGeometry width="50" height="50" relative="1" as="geometry">
            <mxPoint x="1464" y="325" as="sourcePoint" />
            <mxPoint x="1514" y="275" as="targetPoint" />
          </mxGeometry>
        </mxCell>
        <mxCell id="Yx4VKU2NzzIZ2IJ3YvU_-53" value="" style="endArrow=classic;html=1;rounded=0;fontSize=12;startSize=8;endSize=8;curved=1;exitX=0.5;exitY=1;exitDx=0;exitDy=0;entryX=0.5;entryY=0;entryDx=0;entryDy=0;" edge="1" parent="1" source="Yx4VKU2NzzIZ2IJ3YvU_-50" target="Yx4VKU2NzzIZ2IJ3YvU_-48">
          <mxGeometry width="50" height="50" relative="1" as="geometry">
            <mxPoint x="1256" y="189" as="sourcePoint" />
            <mxPoint x="1333" y="341" as="targetPoint" />
          </mxGeometry>
        </mxCell>
        <mxCell id="Yx4VKU2NzzIZ2IJ3YvU_-54" value="" style="endArrow=classic;html=1;rounded=0;fontSize=12;startSize=8;endSize=8;curved=1;exitX=0.5;exitY=1;exitDx=0;exitDy=0;entryX=1;entryY=0;entryDx=0;entryDy=0;" edge="1" parent="1" source="Yx4VKU2NzzIZ2IJ3YvU_-51" target="Yx4VKU2NzzIZ2IJ3YvU_-48">
          <mxGeometry width="50" height="50" relative="1" as="geometry">
            <mxPoint x="1464" y="325" as="sourcePoint" />
            <mxPoint x="1514" y="275" as="targetPoint" />
          </mxGeometry>
        </mxCell>
        <mxCell id="Yx4VKU2NzzIZ2IJ3YvU_-55" value="Inicio lento" style="ellipse;whiteSpace=wrap;html=1;" vertex="1" parent="1">
          <mxGeometry x="1696" y="324" width="120" height="80" as="geometry" />
        </mxCell>
        <mxCell id="Yx4VKU2NzzIZ2IJ3YvU_-56" value="GPU" style="ellipse;whiteSpace=wrap;html=1;" vertex="1" parent="1">
          <mxGeometry x="1584" y="101" width="120" height="80" as="geometry" />
        </mxCell>
        <mxCell id="Yx4VKU2NzzIZ2IJ3YvU_-57" value="Monitor" style="ellipse;whiteSpace=wrap;html=1;" vertex="1" parent="1">
          <mxGeometry x="1714" y="105" width="120" height="80" as="geometry" />
        </mxCell>
        <mxCell id="Yx4VKU2NzzIZ2IJ3YvU_-58" value="Motherboard" style="ellipse;whiteSpace=wrap;html=1;" vertex="1" parent="1">
          <mxGeometry x="1848" y="103" width="120" height="80" as="geometry" />
        </mxCell>
        <mxCell id="Yx4VKU2NzzIZ2IJ3YvU_-59" value="" style="endArrow=classic;html=1;rounded=0;fontSize=12;startSize=8;endSize=8;curved=1;exitX=0.5;exitY=1;exitDx=0;exitDy=0;entryX=0.208;entryY=0.113;entryDx=0;entryDy=0;entryPerimeter=0;" edge="1" parent="1" source="Yx4VKU2NzzIZ2IJ3YvU_-56" target="Yx4VKU2NzzIZ2IJ3YvU_-55">
          <mxGeometry width="50" height="50" relative="1" as="geometry">
            <mxPoint x="1862" y="327" as="sourcePoint" />
            <mxPoint x="1912" y="277" as="targetPoint" />
          </mxGeometry>
        </mxCell>
        <mxCell id="Yx4VKU2NzzIZ2IJ3YvU_-60" value="" style="endArrow=classic;html=1;rounded=0;fontSize=12;startSize=8;endSize=8;curved=1;exitX=0.5;exitY=1;exitDx=0;exitDy=0;entryX=0.5;entryY=0;entryDx=0;entryDy=0;" edge="1" parent="1" source="Yx4VKU2NzzIZ2IJ3YvU_-57" target="Yx4VKU2NzzIZ2IJ3YvU_-55">
          <mxGeometry width="50" height="50" relative="1" as="geometry">
            <mxPoint x="1654" y="191" as="sourcePoint" />
            <mxPoint x="1731" y="343" as="targetPoint" />
          </mxGeometry>
        </mxCell>
        <mxCell id="Yx4VKU2NzzIZ2IJ3YvU_-61" value="" style="endArrow=classic;html=1;rounded=0;fontSize=12;startSize=8;endSize=8;curved=1;exitX=0.5;exitY=1;exitDx=0;exitDy=0;entryX=1;entryY=0;entryDx=0;entryDy=0;" edge="1" parent="1" source="Yx4VKU2NzzIZ2IJ3YvU_-58" target="Yx4VKU2NzzIZ2IJ3YvU_-55">
          <mxGeometry width="50" height="50" relative="1" as="geometry">
            <mxPoint x="1862" y="327" as="sourcePoint" />
            <mxPoint x="1912" y="277" as="targetPoint" />
          </mxGeometry>
        </mxCell>
        <mxCell id="Yx4VKU2NzzIZ2IJ3YvU_-62" value="&lt;div&gt;No envÃ­o de seÃ±al de&lt;/div&gt;&lt;div&gt;varios componentes&lt;br&gt;&lt;/div&gt;" style="ellipse;whiteSpace=wrap;html=1;" vertex="1" parent="1">
          <mxGeometry x="-842" y="322" width="120" height="80" as="geometry" />
        </mxCell>
        <mxCell id="Yx4VKU2NzzIZ2IJ3YvU_-63" value="GPU" style="ellipse;whiteSpace=wrap;html=1;" vertex="1" parent="1">
          <mxGeometry x="-954" y="99" width="120" height="80" as="geometry" />
        </mxCell>
        <mxCell id="Yx4VKU2NzzIZ2IJ3YvU_-64" value="Monitor" style="ellipse;whiteSpace=wrap;html=1;" vertex="1" parent="1">
          <mxGeometry x="-824" y="103" width="120" height="80" as="geometry" />
        </mxCell>
        <mxCell id="Yx4VKU2NzzIZ2IJ3YvU_-65" value="Motherboard" style="ellipse;whiteSpace=wrap;html=1;" vertex="1" parent="1">
          <mxGeometry x="-690" y="101" width="120" height="80" as="geometry" />
        </mxCell>
        <mxCell id="Yx4VKU2NzzIZ2IJ3YvU_-66" value="" style="endArrow=classic;html=1;rounded=0;fontSize=12;startSize=8;endSize=8;curved=1;exitX=0.5;exitY=1;exitDx=0;exitDy=0;entryX=0.208;entryY=0.113;entryDx=0;entryDy=0;entryPerimeter=0;" edge="1" parent="1" source="Yx4VKU2NzzIZ2IJ3YvU_-63" target="Yx4VKU2NzzIZ2IJ3YvU_-62">
          <mxGeometry width="50" height="50" relative="1" as="geometry">
            <mxPoint x="-676" y="325" as="sourcePoint" />
            <mxPoint x="-626" y="275" as="targetPoint" />
          </mxGeometry>
        </mxCell>
        <mxCell id="Yx4VKU2NzzIZ2IJ3YvU_-67" value="" style="endArrow=classic;html=1;rounded=0;fontSize=12;startSize=8;endSize=8;curved=1;exitX=0.5;exitY=1;exitDx=0;exitDy=0;entryX=0.5;entryY=0;entryDx=0;entryDy=0;" edge="1" parent="1" source="Yx4VKU2NzzIZ2IJ3YvU_-64" target="Yx4VKU2NzzIZ2IJ3YvU_-62">
          <mxGeometry width="50" height="50" relative="1" as="geometry">
            <mxPoint x="-884" y="189" as="sourcePoint" />
            <mxPoint x="-807" y="341" as="targetPoint" />
          </mxGeometry>
        </mxCell>
        <mxCell id="Yx4VKU2NzzIZ2IJ3YvU_-68" value="" style="endArrow=classic;html=1;rounded=0;fontSize=12;startSize=8;endSize=8;curved=1;exitX=0.5;exitY=1;exitDx=0;exitDy=0;entryX=1;entryY=0;entryDx=0;entryDy=0;" edge="1" parent="1" source="Yx4VKU2NzzIZ2IJ3YvU_-65" target="Yx4VKU2NzzIZ2IJ3YvU_-62">
          <mxGeometry width="50" height="50" relative="1" as="geometry">
            <mxPoint x="-676" y="325" as="sourcePoint" />
            <mxPoint x="-626" y="275" as="targetPoint" />
          </mxGeometry>
        </mxCell>
        <mxCell id="Yx4VKU2NzzIZ2IJ3YvU_-69" value="No enciende" style="ellipse;whiteSpace=wrap;html=1;" vertex="1" parent="1">
          <mxGeometry x="-1262" y="324" width="120" height="80" as="geometry" />
        </mxCell>
        <mxCell id="Yx4VKU2NzzIZ2IJ3YvU_-70" value="GPU" style="ellipse;whiteSpace=wrap;html=1;" vertex="1" parent="1">
          <mxGeometry x="-1374" y="101" width="120" height="80" as="geometry" />
        </mxCell>
        <mxCell id="Yx4VKU2NzzIZ2IJ3YvU_-71" value="Monitor" style="ellipse;whiteSpace=wrap;html=1;" vertex="1" parent="1">
          <mxGeometry x="-1244" y="105" width="120" height="80" as="geometry" />
        </mxCell>
        <mxCell id="Yx4VKU2NzzIZ2IJ3YvU_-72" value="Motherboard" style="ellipse;whiteSpace=wrap;html=1;" vertex="1" parent="1">
          <mxGeometry x="-1110" y="103" width="120" height="80" as="geometry" />
        </mxCell>
        <mxCell id="Yx4VKU2NzzIZ2IJ3YvU_-73" value="" style="endArrow=classic;html=1;rounded=0;fontSize=12;startSize=8;endSize=8;curved=1;exitX=0.5;exitY=1;exitDx=0;exitDy=0;entryX=0.208;entryY=0.113;entryDx=0;entryDy=0;entryPerimeter=0;" edge="1" parent="1" source="Yx4VKU2NzzIZ2IJ3YvU_-70" target="Yx4VKU2NzzIZ2IJ3YvU_-69">
          <mxGeometry width="50" height="50" relative="1" as="geometry">
            <mxPoint x="-1096" y="327" as="sourcePoint" />
            <mxPoint x="-1046" y="277" as="targetPoint" />
          </mxGeometry>
        </mxCell>
        <mxCell id="Yx4VKU2NzzIZ2IJ3YvU_-74" value="" style="endArrow=classic;html=1;rounded=0;fontSize=12;startSize=8;endSize=8;curved=1;exitX=0.5;exitY=1;exitDx=0;exitDy=0;entryX=0.5;entryY=0;entryDx=0;entryDy=0;" edge="1" parent="1" source="Yx4VKU2NzzIZ2IJ3YvU_-71" target="Yx4VKU2NzzIZ2IJ3YvU_-69">
          <mxGeometry width="50" height="50" relative="1" as="geometry">
            <mxPoint x="-1304" y="191" as="sourcePoint" />
            <mxPoint x="-1227" y="343" as="targetPoint" />
          </mxGeometry>
        </mxCell>
        <mxCell id="Yx4VKU2NzzIZ2IJ3YvU_-75" value="" style="endArrow=classic;html=1;rounded=0;fontSize=12;startSize=8;endSize=8;curved=1;exitX=0.5;exitY=1;exitDx=0;exitDy=0;entryX=1;entryY=0;entryDx=0;entryDy=0;" edge="1" parent="1" source="Yx4VKU2NzzIZ2IJ3YvU_-72" target="Yx4VKU2NzzIZ2IJ3YvU_-69">
          <mxGeometry width="50" height="50" relative="1" as="geometry">
            <mxPoint x="-1096" y="327" as="sourcePoint" />
            <mxPoint x="-1046" y="277" as="targetPoint" />
          </mxGeometry>
        </mxCell>
        <mxCell id="Yx4VKU2NzzIZ2IJ3YvU_-104" value="Pitido" style="ellipse;whiteSpace=wrap;html=1;" vertex="1" parent="1">
          <mxGeometry x="2094" y="324" width="120" height="80" as="geometry" />
        </mxCell>
        <mxCell id="Yx4VKU2NzzIZ2IJ3YvU_-105" value="GPU" style="ellipse;whiteSpace=wrap;html=1;" vertex="1" parent="1">
          <mxGeometry x="1982" y="101" width="120" height="80" as="geometry" />
        </mxCell>
        <mxCell id="Yx4VKU2NzzIZ2IJ3YvU_-106" value="Monitor" style="ellipse;whiteSpace=wrap;html=1;" vertex="1" parent="1">
          <mxGeometry x="2112" y="105" width="120" height="80" as="geometry" />
        </mxCell>
        <mxCell id="Yx4VKU2NzzIZ2IJ3YvU_-107" value="Motherboard" style="ellipse;whiteSpace=wrap;html=1;" vertex="1" parent="1">
          <mxGeometry x="2246" y="103" width="120" height="80" as="geometry" />
        </mxCell>
        <mxCell id="Yx4VKU2NzzIZ2IJ3YvU_-108" value="" style="endArrow=classic;html=1;rounded=0;fontSize=12;startSize=8;endSize=8;curved=1;exitX=0.5;exitY=1;exitDx=0;exitDy=0;entryX=0.208;entryY=0.113;entryDx=0;entryDy=0;entryPerimeter=0;" edge="1" parent="1" source="Yx4VKU2NzzIZ2IJ3YvU_-105" target="Yx4VKU2NzzIZ2IJ3YvU_-104">
          <mxGeometry width="50" height="50" relative="1" as="geometry">
            <mxPoint x="2260" y="327" as="sourcePoint" />
            <mxPoint x="2310" y="277" as="targetPoint" />
          </mxGeometry>
        </mxCell>
        <mxCell id="Yx4VKU2NzzIZ2IJ3YvU_-109" value="" style="endArrow=classic;html=1;rounded=0;fontSize=12;startSize=8;endSize=8;curved=1;exitX=0.5;exitY=1;exitDx=0;exitDy=0;entryX=0.5;entryY=0;entryDx=0;entryDy=0;" edge="1" parent="1" source="Yx4VKU2NzzIZ2IJ3YvU_-106" target="Yx4VKU2NzzIZ2IJ3YvU_-104">
          <mxGeometry width="50" height="50" relative="1" as="geometry">
            <mxPoint x="2052" y="191" as="sourcePoint" />
            <mxPoint x="2129" y="343" as="targetPoint" />
          </mxGeometry>
        </mxCell>
        <mxCell id="Yx4VKU2NzzIZ2IJ3YvU_-110" value="" style="endArrow=classic;html=1;rounded=0;fontSize=12;startSize=8;endSize=8;curved=1;exitX=0.5;exitY=1;exitDx=0;exitDy=0;entryX=1;entryY=0;entryDx=0;entryDy=0;" edge="1" parent="1" source="Yx4VKU2NzzIZ2IJ3YvU_-107" target="Yx4VKU2NzzIZ2IJ3YvU_-104">
          <mxGeometry width="50" height="50" relative="1" as="geometry">
            <mxPoint x="2260" y="327" as="sourcePoint" />
            <mxPoint x="2310" y="277" as="targetPoint" />
          </mxGeometry>
        </mxCell>
        <mxCell id="Yx4VKU2NzzIZ2IJ3YvU_-111" value="ConexiÃ³n lenta" style="ellipse;whiteSpace=wrap;html=1;" vertex="1" parent="1">
          <mxGeometry x="2492" y="324" width="120" height="80" as="geometry" />
        </mxCell>
        <mxCell id="Yx4VKU2NzzIZ2IJ3YvU_-112" value="GPU" style="ellipse;whiteSpace=wrap;html=1;" vertex="1" parent="1">
          <mxGeometry x="2380" y="101" width="120" height="80" as="geometry" />
        </mxCell>
        <mxCell id="Yx4VKU2NzzIZ2IJ3YvU_-113" value="Monitor" style="ellipse;whiteSpace=wrap;html=1;" vertex="1" parent="1">
          <mxGeometry x="2510" y="105" width="120" height="80" as="geometry" />
        </mxCell>
        <mxCell id="Yx4VKU2NzzIZ2IJ3YvU_-114" value="Motherboard" style="ellipse;whiteSpace=wrap;html=1;" vertex="1" parent="1">
          <mxGeometry x="2644" y="103" width="120" height="80" as="geometry" />
        </mxCell>
        <mxCell id="Yx4VKU2NzzIZ2IJ3YvU_-115" value="" style="endArrow=classic;html=1;rounded=0;fontSize=12;startSize=8;endSize=8;curved=1;exitX=0.5;exitY=1;exitDx=0;exitDy=0;entryX=0.208;entryY=0.113;entryDx=0;entryDy=0;entryPerimeter=0;" edge="1" parent="1" source="Yx4VKU2NzzIZ2IJ3YvU_-112" target="Yx4VKU2NzzIZ2IJ3YvU_-111">
          <mxGeometry width="50" height="50" relative="1" as="geometry">
            <mxPoint x="2658" y="327" as="sourcePoint" />
            <mxPoint x="2708" y="277" as="targetPoint" />
          </mxGeometry>
        </mxCell>
        <mxCell id="Yx4VKU2NzzIZ2IJ3YvU_-116" value="" style="endArrow=classic;html=1;rounded=0;fontSize=12;startSize=8;endSize=8;curved=1;exitX=0.5;exitY=1;exitDx=0;exitDy=0;entryX=0.5;entryY=0;entryDx=0;entryDy=0;" edge="1" parent="1" source="Yx4VKU2NzzIZ2IJ3YvU_-113" target="Yx4VKU2NzzIZ2IJ3YvU_-111">
          <mxGeometry width="50" height="50" relative="1" as="geometry">
            <mxPoint x="2450" y="191" as="sourcePoint" />
            <mxPoint x="2527" y="343" as="targetPoint" />
          </mxGeometry>
        </mxCell>
        <mxCell id="Yx4VKU2NzzIZ2IJ3YvU_-117" value="" style="endArrow=classic;html=1;rounded=0;fontSize=12;startSize=8;endSize=8;curved=1;exitX=0.5;exitY=1;exitDx=0;exitDy=0;entryX=1;entryY=0;entryDx=0;entryDy=0;" edge="1" parent="1" source="Yx4VKU2NzzIZ2IJ3YvU_-114" target="Yx4VKU2NzzIZ2IJ3YvU_-111">
          <mxGeometry width="50" height="50" relative="1" as="geometry">
            <mxPoint x="2658" y="327" as="sourcePoint" />
            <mxPoint x="2708" y="277" as="targetPoint" />
          </mxGeometry>
        </mxCell>
        <mxCell id="Yx4VKU2NzzIZ2IJ3YvU_-118" value="&lt;div&gt;Malfuncionamiento&lt;/div&gt;&lt;div&gt;al detectar USBs&lt;br&gt;&lt;/div&gt;" style="ellipse;whiteSpace=wrap;html=1;" vertex="1" parent="1">
          <mxGeometry x="2890" y="320" width="120" height="80" as="geometry" />
        </mxCell>
        <mxCell id="Yx4VKU2NzzIZ2IJ3YvU_-119" value="GPU" style="ellipse;whiteSpace=wrap;html=1;" vertex="1" parent="1">
          <mxGeometry x="2778" y="97" width="120" height="80" as="geometry" />
        </mxCell>
        <mxCell id="Yx4VKU2NzzIZ2IJ3YvU_-120" value="Monitor" style="ellipse;whiteSpace=wrap;html=1;" vertex="1" parent="1">
          <mxGeometry x="2908" y="101" width="120" height="80" as="geometry" />
        </mxCell>
        <mxCell id="Yx4VKU2NzzIZ2IJ3YvU_-121" value="Motherboard" style="ellipse;whiteSpace=wrap;html=1;" vertex="1" parent="1">
          <mxGeometry x="3042" y="99" width="120" height="80" as="geometry" />
        </mxCell>
        <mxCell id="Yx4VKU2NzzIZ2IJ3YvU_-122" value="" style="endArrow=classic;html=1;rounded=0;fontSize=12;startSize=8;endSize=8;curved=1;exitX=0.5;exitY=1;exitDx=0;exitDy=0;entryX=0.208;entryY=0.113;entryDx=0;entryDy=0;entryPerimeter=0;" edge="1" parent="1" source="Yx4VKU2NzzIZ2IJ3YvU_-119" target="Yx4VKU2NzzIZ2IJ3YvU_-118">
          <mxGeometry width="50" height="50" relative="1" as="geometry">
            <mxPoint x="3056" y="323" as="sourcePoint" />
            <mxPoint x="3106" y="273" as="targetPoint" />
          </mxGeometry>
        </mxCell>
        <mxCell id="Yx4VKU2NzzIZ2IJ3YvU_-123" value="" style="endArrow=classic;html=1;rounded=0;fontSize=12;startSize=8;endSize=8;curved=1;exitX=0.5;exitY=1;exitDx=0;exitDy=0;entryX=0.5;entryY=0;entryDx=0;entryDy=0;" edge="1" parent="1" source="Yx4VKU2NzzIZ2IJ3YvU_-120" target="Yx4VKU2NzzIZ2IJ3YvU_-118">
          <mxGeometry width="50" height="50" relative="1" as="geometry">
            <mxPoint x="2848" y="187" as="sourcePoint" />
            <mxPoint x="2925" y="339" as="targetPoint" />
          </mxGeometry>
        </mxCell>
        <mxCell id="Yx4VKU2NzzIZ2IJ3YvU_-124" value="" style="endArrow=classic;html=1;rounded=0;fontSize=12;startSize=8;endSize=8;curved=1;exitX=0.5;exitY=1;exitDx=0;exitDy=0;entryX=1;entryY=0;entryDx=0;entryDy=0;" edge="1" parent="1" source="Yx4VKU2NzzIZ2IJ3YvU_-121" target="Yx4VKU2NzzIZ2IJ3YvU_-118">
          <mxGeometry width="50" height="50" relative="1" as="geometry">
            <mxPoint x="3056" y="323" as="sourcePoint" />
            <mxPoint x="3106" y="273" as="targetPoint" />
          </mxGeometry>
        </mxCell>
        <mxCell id="Yx4VKU2NzzIZ2IJ3YvU_-125" value="&lt;span style=&quot;font-size:13px;color:#071924;font-weight:normal;text-decoration:none;font-family:&#39;Georgia&#39;;font-style:normal;text-decoration-skip-ink:none;&quot;&gt;Desplazamiento de pantalla&lt;/span&gt;" style="ellipse;whiteSpace=wrap;html=1;" vertex="1" parent="1">
          <mxGeometry x="3288" y="322" width="120" height="80" as="geometry" />
        </mxCell>
        <mxCell id="Yx4VKU2NzzIZ2IJ3YvU_-126" value="GPU" style="ellipse;whiteSpace=wrap;html=1;" vertex="1" parent="1">
          <mxGeometry x="3176" y="99" width="120" height="80" as="geometry" />
        </mxCell>
        <mxCell id="Yx4VKU2NzzIZ2IJ3YvU_-127" value="Monitor" style="ellipse;whiteSpace=wrap;html=1;" vertex="1" parent="1">
          <mxGeometry x="3306" y="103" width="120" height="80" as="geometry" />
        </mxCell>
        <mxCell id="Yx4VKU2NzzIZ2IJ3YvU_-128" value="Motherboard" style="ellipse;whiteSpace=wrap;html=1;" vertex="1" parent="1">
          <mxGeometry x="3440" y="101" width="120" height="80" as="geometry" />
        </mxCell>
        <mxCell id="Yx4VKU2NzzIZ2IJ3YvU_-129" value="" style="endArrow=classic;html=1;rounded=0;fontSize=12;startSize=8;endSize=8;curved=1;exitX=0.5;exitY=1;exitDx=0;exitDy=0;entryX=0.208;entryY=0.113;entryDx=0;entryDy=0;entryPerimeter=0;" edge="1" parent="1" source="Yx4VKU2NzzIZ2IJ3YvU_-126" target="Yx4VKU2NzzIZ2IJ3YvU_-125">
          <mxGeometry width="50" height="50" relative="1" as="geometry">
            <mxPoint x="3454" y="325" as="sourcePoint" />
            <mxPoint x="3504" y="275" as="targetPoint" />
          </mxGeometry>
        </mxCell>
        <mxCell id="Yx4VKU2NzzIZ2IJ3YvU_-130" value="" style="endArrow=classic;html=1;rounded=0;fontSize=12;startSize=8;endSize=8;curved=1;exitX=0.5;exitY=1;exitDx=0;exitDy=0;entryX=0.5;entryY=0;entryDx=0;entryDy=0;" edge="1" parent="1" source="Yx4VKU2NzzIZ2IJ3YvU_-127" target="Yx4VKU2NzzIZ2IJ3YvU_-125">
          <mxGeometry width="50" height="50" relative="1" as="geometry">
            <mxPoint x="3246" y="189" as="sourcePoint" />
            <mxPoint x="3323" y="341" as="targetPoint" />
          </mxGeometry>
        </mxCell>
        <mxCell id="Yx4VKU2NzzIZ2IJ3YvU_-131" value="" style="endArrow=classic;html=1;rounded=0;fontSize=12;startSize=8;endSize=8;curved=1;exitX=0.5;exitY=1;exitDx=0;exitDy=0;entryX=1;entryY=0;entryDx=0;entryDy=0;" edge="1" parent="1" source="Yx4VKU2NzzIZ2IJ3YvU_-128" target="Yx4VKU2NzzIZ2IJ3YvU_-125">
          <mxGeometry width="50" height="50" relative="1" as="geometry">
            <mxPoint x="3454" y="325" as="sourcePoint" />
            <mxPoint x="3504" y="275" as="targetPoint" />
          </mxGeometry>
        </mxCell>
        <mxCell id="Yx4VKU2NzzIZ2IJ3YvU_-139" value="&lt;div&gt;Bloqueos o &lt;br&gt;&lt;/div&gt;&lt;div&gt;cuelgues aleatorios&lt;br&gt;&lt;/div&gt;" style="ellipse;whiteSpace=wrap;html=1;" vertex="1" parent="1">
          <mxGeometry x="3678" y="322" width="120" height="80" as="geometry" />
        </mxCell>
        <mxCell id="Yx4VKU2NzzIZ2IJ3YvU_-140" value="GPU" style="ellipse;whiteSpace=wrap;html=1;" vertex="1" parent="1">
          <mxGeometry x="3566" y="99" width="120" height="80" as="geometry" />
        </mxCell>
        <mxCell id="Yx4VKU2NzzIZ2IJ3YvU_-141" value="Monitor" style="ellipse;whiteSpace=wrap;html=1;" vertex="1" parent="1">
          <mxGeometry x="3696" y="103" width="120" height="80" as="geometry" />
        </mxCell>
        <mxCell id="Yx4VKU2NzzIZ2IJ3YvU_-142" value="Motherboard" style="ellipse;whiteSpace=wrap;html=1;" vertex="1" parent="1">
          <mxGeometry x="3830" y="101" width="120" height="80" as="geometry" />
        </mxCell>
        <mxCell id="Yx4VKU2NzzIZ2IJ3YvU_-143" value="" style="endArrow=classic;html=1;rounded=0;fontSize=12;startSize=8;endSize=8;curved=1;exitX=0.5;exitY=1;exitDx=0;exitDy=0;entryX=0.208;entryY=0.113;entryDx=0;entryDy=0;entryPerimeter=0;" edge="1" parent="1" source="Yx4VKU2NzzIZ2IJ3YvU_-140" target="Yx4VKU2NzzIZ2IJ3YvU_-139">
          <mxGeometry width="50" height="50" relative="1" as="geometry">
            <mxPoint x="3844" y="325" as="sourcePoint" />
            <mxPoint x="3894" y="275" as="targetPoint" />
          </mxGeometry>
        </mxCell>
        <mxCell id="Yx4VKU2NzzIZ2IJ3YvU_-144" value="" style="endArrow=classic;html=1;rounded=0;fontSize=12;startSize=8;endSize=8;curved=1;exitX=0.5;exitY=1;exitDx=0;exitDy=0;entryX=0.5;entryY=0;entryDx=0;entryDy=0;" edge="1" parent="1" source="Yx4VKU2NzzIZ2IJ3YvU_-141" target="Yx4VKU2NzzIZ2IJ3YvU_-139">
          <mxGeometry width="50" height="50" relative="1" as="geometry">
            <mxPoint x="3636" y="189" as="sourcePoint" />
            <mxPoint x="3713" y="341" as="targetPoint" />
          </mxGeometry>
        </mxCell>
        <mxCell id="Yx4VKU2NzzIZ2IJ3YvU_-145" value="" style="endArrow=classic;html=1;rounded=0;fontSize=12;startSize=8;endSize=8;curved=1;exitX=0.5;exitY=1;exitDx=0;exitDy=0;entryX=1;entryY=0;entryDx=0;entryDy=0;" edge="1" parent="1" source="Yx4VKU2NzzIZ2IJ3YvU_-142" target="Yx4VKU2NzzIZ2IJ3YvU_-139">
          <mxGeometry width="50" height="50" relative="1" as="geometry">
            <mxPoint x="3844" y="325" as="sourcePoint" />
            <mxPoint x="3894" y="275" as="targetPoint" />
          </mxGeometry>
        </mxCell>
        <mxCell id="Yx4VKU2NzzIZ2IJ3YvU_-147" value="&lt;div&gt;Fallos de guardado&lt;/div&gt;&lt;div&gt;de datos&lt;br&gt;&lt;/div&gt;" style="ellipse;whiteSpace=wrap;html=1;" vertex="1" parent="1">
          <mxGeometry x="4076" y="322" width="120" height="80" as="geometry" />
        </mxCell>
        <mxCell id="Yx4VKU2NzzIZ2IJ3YvU_-148" value="Almacenamiento" style="ellipse;whiteSpace=wrap;html=1;" vertex="1" parent="1">
          <mxGeometry x="3964" y="99" width="120" height="80" as="geometry" />
        </mxCell>
        <mxCell id="Yx4VKU2NzzIZ2IJ3YvU_-149" value="RAM" style="ellipse;whiteSpace=wrap;html=1;" vertex="1" parent="1">
          <mxGeometry x="4094" y="103" width="120" height="80" as="geometry" />
        </mxCell>
        <mxCell id="Yx4VKU2NzzIZ2IJ3YvU_-150" value="Motherboard" style="ellipse;whiteSpace=wrap;html=1;" vertex="1" parent="1">
          <mxGeometry x="4228" y="101" width="120" height="80" as="geometry" />
        </mxCell>
        <mxCell id="Yx4VKU2NzzIZ2IJ3YvU_-151" value="" style="endArrow=classic;html=1;rounded=0;fontSize=12;startSize=8;endSize=8;curved=1;exitX=0.5;exitY=1;exitDx=0;exitDy=0;entryX=0.208;entryY=0.113;entryDx=0;entryDy=0;entryPerimeter=0;" edge="1" parent="1" source="Yx4VKU2NzzIZ2IJ3YvU_-148" target="Yx4VKU2NzzIZ2IJ3YvU_-147">
          <mxGeometry width="50" height="50" relative="1" as="geometry">
            <mxPoint x="4242" y="325" as="sourcePoint" />
            <mxPoint x="4292" y="275" as="targetPoint" />
          </mxGeometry>
        </mxCell>
        <mxCell id="Yx4VKU2NzzIZ2IJ3YvU_-152" value="" style="endArrow=classic;html=1;rounded=0;fontSize=12;startSize=8;endSize=8;curved=1;exitX=0.5;exitY=1;exitDx=0;exitDy=0;entryX=0.5;entryY=0;entryDx=0;entryDy=0;" edge="1" parent="1" source="Yx4VKU2NzzIZ2IJ3YvU_-149" target="Yx4VKU2NzzIZ2IJ3YvU_-147">
          <mxGeometry width="50" height="50" relative="1" as="geometry">
            <mxPoint x="4034" y="189" as="sourcePoint" />
            <mxPoint x="4111" y="341" as="targetPoint" />
          </mxGeometry>
        </mxCell>
        <mxCell id="Yx4VKU2NzzIZ2IJ3YvU_-153" value="" style="endArrow=classic;html=1;rounded=0;fontSize=12;startSize=8;endSize=8;curved=1;exitX=0.5;exitY=1;exitDx=0;exitDy=0;entryX=1;entryY=0;entryDx=0;entryDy=0;" edge="1" parent="1" source="Yx4VKU2NzzIZ2IJ3YvU_-150" target="Yx4VKU2NzzIZ2IJ3YvU_-147">
          <mxGeometry width="50" height="50" relative="1" as="geometry">
            <mxPoint x="4242" y="325" as="sourcePoint" />
            <mxPoint x="4292" y="275" as="targetPoint" />
          </mxGeometry>
        </mxCell>
        <mxCell id="Yx4VKU2NzzIZ2IJ3YvU_-154" value="&lt;div&gt;Mala detecciÃ³n&lt;/div&gt;&lt;div&gt;de perifericos&lt;/div&gt;&lt;div&gt;externos&lt;br&gt;&lt;/div&gt;" style="ellipse;whiteSpace=wrap;html=1;" vertex="1" parent="1">
          <mxGeometry x="4474" y="322" width="120" height="80" as="geometry" />
        </mxCell>
        <mxCell id="Yx4VKU2NzzIZ2IJ3YvU_-156" value="Motherboard" style="ellipse;whiteSpace=wrap;html=1;" vertex="1" parent="1">
          <mxGeometry x="4492" y="103" width="120" height="80" as="geometry" />
        </mxCell>
        <mxCell id="Yx4VKU2NzzIZ2IJ3YvU_-157" value="Perifericos" style="ellipse;whiteSpace=wrap;html=1;" vertex="1" parent="1">
          <mxGeometry x="4626" y="101" width="120" height="80" as="geometry" />
        </mxCell>
        <mxCell id="Yx4VKU2NzzIZ2IJ3YvU_-159" value="" style="endArrow=classic;html=1;rounded=0;fontSize=12;startSize=8;endSize=8;curved=1;exitX=0.5;exitY=1;exitDx=0;exitDy=0;entryX=0.5;entryY=0;entryDx=0;entryDy=0;" edge="1" parent="1" source="Yx4VKU2NzzIZ2IJ3YvU_-156" target="Yx4VKU2NzzIZ2IJ3YvU_-154">
          <mxGeometry width="50" height="50" relative="1" as="geometry">
            <mxPoint x="4432" y="189" as="sourcePoint" />
            <mxPoint x="4509" y="341" as="targetPoint" />
          </mxGeometry>
        </mxCell>
        <mxCell id="Yx4VKU2NzzIZ2IJ3YvU_-160" value="" style="endArrow=classic;html=1;rounded=0;fontSize=12;startSize=8;endSize=8;curved=1;exitX=0.5;exitY=1;exitDx=0;exitDy=0;entryX=1;entryY=0;entryDx=0;entryDy=0;" edge="1" parent="1" source="Yx4VKU2NzzIZ2IJ3YvU_-157" target="Yx4VKU2NzzIZ2IJ3YvU_-154">
          <mxGeometry width="50" height="50" relative="1" as="geometry">
            <mxPoint x="4640" y="325" as="sourcePoint" />
            <mxPoint x="4690" y="275" as="targetPoint" />
          </mxGeometry>
        </mxCell>
      </root>
    </mxGraphModel>
  </diagram>
</mxfile>
